<svg version="1.1" xmlns="http://www.w3.org/2000/svg" viewBox="-859.45 -1082.2 3397.9 2482.1"><desc>Created with Snap</desc><defs></defs><g><rect x="-859.45" y="-1082.2" width="3397.9" height="2482.1" fill="#4361ee" style=""></rect><g><g transform="matrix(0.5,0,0,-0.5,0,0)"><path d="M661 80Q853 80 909 548Q928 706 928 920Q928 1450 659 1450Q390 1450 390 920Q390 295 551 131Q601 80 661 80ZM659 -20Q393 -20 258 230Q128 471 128 920Q128 1387 415 1508Q516 1550 659 1550Q1069 1550 1160 1186Q1190 1069 1190 885Q1190 701 1158 526Q1126 352 1060 230Q925 -20 659 -20ZM2247 964L2247 916L2232 469Q2232 196 2280 94Q2297 57 2340 0L2062 0Q2039 68 2032 172Q1916 -20 1733 -20Q1607 -20 1540 74Q1474 165 1474 324L1474 459Q1474 504 1474 551L1472 642Q1471 729 1466 777Q1462 826 1456 858Q1451 891 1443 916Q1435 942 1425 964L1403 1010L1692 1010Q1693 994 1693 980L1693 951Q1693 951 1676 449Q1676 302 1695 249Q1714 196 1740 173Q1767 150 1811 150Q1930 150 2004 280Q2024 317 2037 355Q2039 411 2039 482Q2039 847 1985 964L1963 1010L2248 1010Q2247 985 2247 964ZM2861 0L2566 0Q2612 158 2612 543Q2612 817 2568 917Q2550 958 2504 1010L2859 1010Q2841 947 2830 837Q2924 955 3092 1004Q3164 1025 3197 1070Q3230 991 3230 934Q3230 877 3224 828Q3218 780 3206 734Q3180 635 3137 580Q3100 775 3022 808Q2932 847 2846 702Q2828 672 2816 638Q2815 615 2815 591Q2815 567 2815 543Q2815 158 2861 0Z" fill="#ffffff" style=""></path></g></g><g transform="matrix(1,0,0,1,-551.75,1082.7)"><g transform="matrix(0.5,0,0,-0.5,0,0)"><path d="M-1 1530L348 1530Q331 1475 331 1426Q331 1343 360 1186Q482 573 502 478Q544 282 553 240Q563 199 571 161Q757 382 828 764Q854 904 854 1028Q854 1152 849 1220Q844 1288 832 1344Q808 1456 756 1531L1105 1531Q1084 1471 1083 1411Q1082 1351 1079 1228Q1076 1106 1048 937Q1020 768 978 635Q936 502 885 401Q834 300 783 224Q732 148 686 94L608 0L293 0Q308 38 308 74Q308 133 292 247Q121 1389 -1 1530ZM1983 534L1980 342Q1980 163 2013 98Q2033 59 2060 38L2107 0L1817 0L1786 116Q1673 -20 1464 -20Q1345 -20 1272 60Q1208 132 1208 230Q1208 328 1254 401Q1301 474 1377 522Q1527 615 1754 619L1754 630Q1754 873 1679 915Q1652 930 1609 930Q1567 930 1525 902Q1483 874 1449 830Q1381 741 1352 620Q1263 673 1263 823Q1263 884 1279 960Q1317 960 1351 971L1428 995Q1541 1030 1649 1030Q1757 1030 1821 998Q1886 966 1922 903Q1983 796 1983 534ZM1424 210Q1424 148 1452 114Q1481 80 1524 80Q1567 80 1607 102Q1647 125 1679 164Q1754 253 1754 373L1754 521Q1614 508 1523 428Q1424 342 1424 210ZM2534 720L2533 458Q2533 134 2572 0L2277 0Q2305 97 2312 229Q2327 548 2327 724Q2327 900 2326 960Q2325 1021 2324 1082Q2318 1299 2303 1355Q2289 1412 2276 1437Q2264 1463 2248 1484L2215 1530L2580 1530Q2552 1429 2547 1336Q2543 1244 2540 1173Q2538 1102 2536 1025Q2534 897 2534 720ZM3637 964L3637 916L3622 469Q3622 196 3670 94Q3687 57 3730 0L3452 0Q3429 68 3422 172Q3306 -20 3123 -20Q2997 -20 2930 74Q2864 165 2864 324L2864 459Q2864 504 2864 551L2862 642Q2861 729 2856 777Q2852 826 2846 858Q2841 891 2833 916Q2825 942 2815 964L2793 1010L3082 1010Q3083 994 3083 980L3083 951Q3083 951 3066 449Q3066 302 3085 249Q3104 196 3130 173Q3157 150 3201 150Q3320 150 3394 280Q3414 317 3427 355Q3429 411 3429 482Q3429 847 3375 964L3353 1010L3638 1010Q3637 985 3637 964ZM4632 340Q4668 316 4668 256Q4668 197 4652 152Q4636 107 4596 68Q4506 -20 4322 -20Q4108 -20 3996 138Q3897 279 3897 519Q3897 761 4031 899Q4158 1030 4375 1030Q4526 1030 4611 942Q4678 872 4678 780Q4678 689 4642 615Q4607 542 4538 489Q4396 379 4141 373Q4162 172 4267 104Q4305 80 4368 80Q4431 80 4502 146Q4573 212 4632 340ZM4135 499L4135 468Q4451 489 4451 774Q4451 881 4387 918Q4365 930 4329 930Q4293 930 4256 908Q4220 886 4193 836Q4135 727 4135 499ZM5516 1069Q5543 1009 5543 948Q5543 887 5537 847Q5532 807 5521 770Q5496 686 5450 641Q5419 796 5382 842Q5346 888 5309 904Q5273 920 5232 920Q5191 920 5165 912Q5139 904 5120 889Q5077 856 5077 814Q5077 772 5098 741Q5119 711 5153 684Q5188 658 5232 633L5322 582Q5438 517 5481 474Q5566 389 5566 295Q5566 172 5482 88Q5376 -20 5164 -20Q4971 -20 4874 70Q4846 96 4834 122Q4842 197 4901 263Q4958 327 5012 337Q5008 324 5008 298Q5008 272 5023 233Q5038 195 5066 162Q5129 86 5208 86Q5287 86 5324 122Q5361 158 5361 204Q5361 250 5340 281Q5319 312 5284 339Q5250 366 5206 391L5116 442Q5001 510 4958 558Q4872 654 4872 767Q4872 886 4972 960Q5067 1030 5209 1030L5385 1018Q5449 1018 5474 1033Q5499 1049 5516 1069Z" fill="#ffffff" style=""></path></g></g></g></svg>